<svg width="512" height="512" viewBox="0 0 512 512" fill="none" xmlns="http://www.w3.org/2000/svg">
<path d="M389 40.8398C407.5 40.8398 424 59.6298 424 84.8698C424 110.2 407.5 128.9 389 128.9C370.5 128.9 354 110.2 354 84.8698C354 59.6298 370.5 40.8398 389 40.8398ZM256.1 40.8398C274.5 40.8398 291.1 59.6298 291.1 84.8698C291.1 110.2 274.5 128.9 256.1 128.9C237.6 128.9 221 110.2 221 84.8698C221 59.6298 237.6 40.8398 256.1 40.8398ZM123.1 40.8398C141.6 40.8398 158.1 59.6298 158.1 84.8698C158.1 110.2 141.6 128.9 123.1 128.9C104.6 128.9 88.0102 110.2 88.0102 84.8698C88.0102 59.6298 104.6 40.8398 123.1 40.8398ZM256.1 149.9C320.1 151.9 374.1 151.9 438.9 154.1C469.8 171.9 484.1 263.1 483.2 294.8L465.6 312.5C457.9 269.7 448.2 212.6 432.1 199.9V287.5L436.2 471.2H414L397.3 286.5H379.3L362.6 471.2H340.3L344.5 287.5L336.5 199H307.2L300 287.2L304.2 470.9H281.9L265.1 286.2H247.1L230.3 470.9H208.1L212.3 287.2L205 199H175.7L167.7 287.5L171.9 471.2H149.6L132.9 286.5H114.9L98.0102 471.2H75.8102L80.0102 287.5V199.9C63.8102 212.6 54.1102 269.7 46.4102 312.5L28.8102 294.8C27.9102 263.1 42.3102 171.9 73.1102 154.1C138.1 151.9 192.1 151.9 256.1 149.9Z" fill="black"/>
</svg>
