<svg width="512" height="512" viewBox="0 0 512 512" fill="none" xmlns="http://www.w3.org/2000/svg">
<path d="M71 32V167H89V32H71ZM327 32V167H345V32H327ZM119 127.604V167H137V127.604H119ZM375 127.604V167H393V127.604H375ZM57 185V284.27L73 300.27V487H183V300.27L199 284.27V185H57ZM313 185V284.27L329 300.27V487H439V300.27L455 284.27V185H313ZM217 192V272H233.432V192H217ZM473 192V272H489.432V192H473ZM80 199H176V217H80V199ZM336 199H432V217H336V199ZM80 231H176V249H80V231ZM336 231H432V249H336V231ZM80 263H176V281H80V263ZM336 263H432V281H336V263ZM112 304C118.365 304 124.47 306.529 128.971 311.029C133.471 315.53 136 321.635 136 328C136 334.365 133.471 340.47 128.971 344.971C124.47 349.471 118.365 352 112 352C105.635 352 99.5303 349.471 95.0294 344.971C90.5286 340.47 88 334.365 88 328C88 321.635 90.5286 315.53 95.0294 311.029C99.5303 306.529 105.635 304 112 304ZM368 304C374.365 304 380.47 306.529 384.971 311.029C389.471 315.53 392 321.635 392 328C392 334.365 389.471 340.47 384.971 344.971C380.47 349.471 374.365 352 368 352C361.635 352 355.53 349.471 351.029 344.971C346.529 340.47 344 334.365 344 328C344 321.635 346.529 315.53 351.029 311.029C355.53 306.529 361.635 304 368 304Z" fill="#02111B"/>
</svg>
