<svg width="512" height="512" viewBox="0 0 512 512" fill="none" xmlns="http://www.w3.org/2000/svg">
<path d="M488 112V240C488 246.365 485.472 252.47 480.971 256.971C476.47 261.471 470.365 264 464 264C457.635 264 451.53 261.471 447.03 256.971C442.529 252.47 440 246.365 440 240V170L288.98 321.04C286.75 323.277 284.101 325.053 281.184 326.264C278.267 327.475 275.139 328.099 271.98 328.099C268.821 328.099 265.694 327.475 262.776 326.264C259.859 325.053 257.21 323.277 254.98 321.04L192 258L64.9801 384.98C60.4714 389.489 54.3563 392.022 47.9801 392.022C41.6039 392.022 35.4888 389.489 30.9801 384.98C26.4714 380.471 23.9385 374.356 23.9385 367.98C23.9385 361.604 26.4714 355.489 30.9801 350.98L174.98 206.98C177.21 204.743 179.859 202.967 182.776 201.756C185.694 200.545 188.821 199.921 191.98 199.921C195.139 199.921 198.267 200.545 201.184 201.756C204.101 202.967 206.75 204.743 208.98 206.98L272 270L406 136H336C329.635 136 323.53 133.471 319.03 128.971C314.529 124.47 312 118.365 312 112C312 105.635 314.529 99.5303 319.03 95.0294C323.53 90.5286 329.635 88 336 88H464C470.365 88 476.47 90.5286 480.971 95.0294C485.472 99.5303 488 105.635 488 112Z" fill="black"/>
</svg>
