<svg width="512" height="512" viewBox="0 0 512 512" fill="none" xmlns="http://www.w3.org/2000/svg">
<path d="M147.886 34.6877C137.811 34.6676 127.771 35.8922 117.996 38.3337C66.0421 51.3177 22.3141 98.1067 20.2141 165.314C19.0941 201.116 30.1471 230.882 47.7541 256.434C65.3641 281.986 89.3041 303.59 114.601 324.874C165.198 367.447 220.993 408.746 247.001 473.168L255.904 495.218L264.394 473.006C289.042 408.523 343.024 365.23 392.998 321.736C442.972 278.243 489.632 233.534 491.781 165.903C494.056 94.3667 449.417 49.2027 396.258 38.7657C347.258 29.1437 290.918 47.8877 256.028 96.5097C228.482 54.3697 187.698 34.7697 147.888 34.6877H147.886ZM256.316 125.048L348.73 240.192C331.829 235.926 314.642 232.883 297.304 231.088L256.316 180.02L214.841 231.698C197.614 233.618 180.658 236.538 163.903 240.194L256.316 125.048ZM267.28 229.268C271.024 229.471 274.804 229.804 278.618 230.266C301.746 288.986 373.328 302.426 423.011 268.208C410.309 281.486 395.925 294.413 380.729 307.638C367.612 319.055 353.955 330.646 340.457 342.798C301.817 339.506 261.312 293.251 267.281 229.268H267.28ZM244.667 229.478C249.764 293.908 206.98 341.492 167.437 344.651C153.675 332.891 139.827 321.681 126.632 310.578C111.817 298.113 97.8301 285.75 85.5721 272.941C135.429 312.653 210.217 294.741 233.082 230.654C236.916 230.157 240.775 229.759 244.667 229.48V229.478Z" fill="black"/>
</svg>
