<svg width="152" height="36" viewBox="0 0 152 36" fill="none" xmlns="http://www.w3.org/2000/svg">
<g clip-path="url(#clip0_1112_6562)">
<path d="M152.495 -0.493896H-0.475586V37.0457H152.495V-0.493896Z" fill="url(#paint0_radial_1112_6562)"/>
<path d="M151.684 0.317701V36.2347H0.335767V0.317701H151.684ZM153.307 -1.30493H-1.28687V37.8573H153.307V-1.30493Z" fill="white"/>
<path d="M21.0947 3.16821V7.32756H15.9915V19.5865H9.31706V7.32756H4.21118V3.16821H21.0947Z" fill="white"/>
<path d="M29.8758 13.8938V19.573H23.1743V3.16821H33.9378C36.0202 3.16821 37.6653 3.63337 38.8733 4.56368C40.0812 5.49399 40.6861 6.80561 40.6879 8.49856C40.6879 10.9163 39.5512 12.5443 37.2777 13.3827L41.026 19.5865H33.5754L30.4302 13.9073L29.8758 13.8938ZM29.8758 7.32756V9.73446H32.4395C33.213 9.73446 33.5997 9.33331 33.5997 8.53101C33.5997 7.72871 33.213 7.32756 32.4395 7.32756H29.8758Z" fill="white"/>
<path d="M53.1442 17.6042H48.1114L47.5705 19.5865H41.6208L47.3379 3.16821H55.0049L60.7138 19.5865H53.7717L53.1442 17.6042ZM51.838 13.4449L50.4344 8.62567L49.2256 13.4449H51.838Z" fill="white"/>
<path d="M70.6796 7.54365C69.0569 7.55808 68.2456 8.83635 68.2456 11.3785C68.2456 13.9206 69.0569 15.198 70.6796 15.2106C71.9038 15.2106 72.6781 14.5516 73.0027 13.2337L79.4364 14.5047C79.0506 15.875 78.1148 17.0649 76.6292 18.0745C75.1436 19.0842 73.0802 19.5881 70.4389 19.5863C67.7904 19.5863 65.589 18.857 63.8348 17.3984C62.0805 15.9399 61.2016 13.9026 61.198 11.2865C61.198 8.67048 62.1409 6.66383 64.0268 5.26656C65.8471 3.89034 68.0704 3.15273 70.3523 3.16796C72.6835 3.16796 74.6667 3.61869 76.302 4.52015C77.9373 5.42161 78.982 6.66924 79.4364 8.26302L73.0027 9.51245C72.6457 8.19992 71.8713 7.54365 70.6796 7.54365Z" fill="white"/>
<path d="M97.6479 3.16821V7.32756H92.5555V19.5865H85.8703V7.32756H80.7671V3.16821H97.6479Z" fill="white"/>
<path d="M125.898 13.8938V19.573H119.199V3.16821H129.962C132.043 3.16821 133.688 3.63337 134.898 4.56368C136.108 5.49399 136.712 6.80561 136.71 8.49856C136.71 10.9163 135.573 12.5443 133.3 13.3827L137.051 19.5865H129.605L126.46 13.9073L125.898 13.8938ZM125.898 7.32756V9.73446H128.464C129.238 9.73446 129.624 9.33331 129.624 8.53101C129.624 7.72871 129.238 7.32756 128.464 7.32756H125.898Z" fill="white"/>
<path d="M4.21411 22.0449H147.955" stroke="white" stroke-width="1.35219" stroke-miterlimit="10"/>
<path d="M10.2637 28.7273C10.4363 29.0341 10.5621 29.365 10.6369 29.709H10.6612C10.776 29.2821 10.9518 28.8741 11.1831 28.4974L11.9431 27.0479H13.6793L11.4238 30.7231V33.4275H9.84447V30.7231L7.6377 27.0479H9.3685L10.2637 28.7273Z" fill="white"/>
<path d="M13.782 31.2073C13.782 29.563 13.8171 28.5029 16.0402 28.5029C18.2632 28.5029 18.2415 29.5603 18.2523 31.2073C18.2632 32.8543 17.9467 33.5818 16.0402 33.5818C14.1011 33.5818 13.7712 32.8786 13.782 31.2073ZM15.2586 31.8726C15.2586 32.4594 15.3262 32.7164 16.0402 32.7164C16.7541 32.7164 16.7785 32.4459 16.7785 31.8726V30.2689C16.7785 29.8173 16.7785 29.3575 16.0402 29.3575C15.2586 29.3575 15.2586 29.8173 15.2586 30.2689V31.8726Z" fill="white"/>
<path d="M22.3388 32.7243H22.3171C22.09 33.2949 21.6573 33.5599 20.9433 33.5681C19.775 33.5681 19.5127 33.1164 19.5127 32.3159V28.6353H20.9893V31.9238C20.9588 32.1472 21.0107 32.3741 21.1353 32.562C21.2626 32.6677 21.4244 32.7226 21.5897 32.7162C22.282 32.7162 22.2712 32.1266 22.2712 31.7534V28.6353H23.7478V33.4409H22.3388V32.7243Z" fill="white"/>
<path d="M26.6278 29.487H26.6521C26.7766 29.2097 26.9773 28.9733 27.2308 28.8055C27.501 28.6203 27.8229 28.5256 28.1503 28.5351V29.8467C27.339 29.7872 26.7089 29.9414 26.6845 30.658V33.4381H25.2161V28.6351H26.6332L26.6278 29.487Z" fill="white"/>
<path d="M31.7473 33.441V27.0479H34.1191C34.8898 27.0479 36.0121 27.0992 36.553 27.5887C36.7489 27.7595 36.9015 27.9743 36.9984 28.2154C37.0952 28.4566 37.1335 28.7173 37.1101 28.9761C37.1101 29.6684 36.8938 30.4419 35.9851 30.7583C35.2928 31.0125 34.4896 30.9368 33.7404 30.9638V33.4518L31.7473 33.441ZM33.7459 29.7955C34.1191 29.7955 34.5572 29.8226 34.8682 29.6332C34.9548 29.5505 35.022 29.4497 35.065 29.338C35.108 29.2262 35.1258 29.1063 35.117 28.9869C35.117 28.7381 35.0845 28.3649 34.7438 28.2459C34.4852 28.1988 34.222 28.1816 33.9595 28.1945H33.7459V29.7955Z" fill="white"/>
<path d="M37.1396 33.441L39.0084 27.0479H41.4153L43.2651 33.441H41.2449L40.9609 32.197H39.387L39.149 33.441H37.1396ZM40.2037 28.208H40.1794L39.6006 31.072H40.7581L40.2037 28.208Z" fill="white"/>
<path d="M45.821 33.441H43.8252V27.0479H46.7405C48.3632 27.0479 49.1907 27.5428 49.1907 28.8138C49.1907 29.4953 48.9771 29.9794 48.136 30.2688V30.2877C48.6931 30.3797 49.0906 30.6717 49.1231 31.1125C49.1799 31.6264 49.1907 32.7352 49.3043 33.1327C49.3483 33.2227 49.4155 33.2992 49.499 33.3545V33.441H47.3193C47.2597 33.3262 47.2212 33.2016 47.2057 33.0732C47.1705 32.5107 47.2057 31.9915 47.1597 31.5912C47.1137 31.191 46.9461 30.9422 46.4782 30.9178H45.821V33.441ZM45.821 29.7685H46.5025C47.0813 29.7685 47.2165 29.3682 47.2165 28.9761C47.2165 28.2161 46.7973 28.1837 45.821 28.1999V29.7685Z" fill="white"/>
<path d="M49.7044 27.0479H54.8806V28.327H53.258V33.441H51.2594V28.327H49.6936L49.7044 27.0479Z" fill="white"/>
<path d="M57.2954 29.1276H57.3198C57.647 28.5867 58.3069 28.5056 58.6476 28.5056C59.486 28.5056 60.1675 28.8734 60.1215 29.7334V33.4411H58.6476V30.2364C58.6476 29.7686 58.58 29.4603 58.0229 29.444C57.4658 29.4278 57.2738 29.8172 57.2954 30.3311V33.4411H55.8215V28.6354H57.2954V29.1276Z" fill="white"/>
<path d="M61.3928 30.2878C61.3251 29.1547 62.0986 28.5056 63.5563 28.5056C65.6089 28.5056 65.8252 29.3169 65.8252 30.6204V31.2668H62.8694V31.9591C62.8694 32.5892 63.1993 32.7082 63.6401 32.7082C64.181 32.7082 64.3432 32.4107 64.3216 31.805H65.7955C65.8523 32.8867 65.2546 33.5601 63.7537 33.5601C62.0526 33.5601 61.3603 32.9543 61.3928 31.5399V30.2878ZM64.3432 30.4149V29.9984C64.3432 29.5116 64.162 29.3575 63.5725 29.3575C62.8342 29.3575 62.8694 29.7848 62.8694 30.2202V30.4149H64.3432Z" fill="white"/>
<path d="M68.5783 29.487H68.5999C68.7244 29.2097 68.9251 28.9733 69.1786 28.8055C69.4488 28.6203 69.7707 28.5256 70.0981 28.5351V29.8467C69.2868 29.7872 68.6567 29.9414 68.635 30.658V33.4381H67.1584V28.6351H68.5783V29.487Z" fill="white"/>
<path d="M73.9329 28.0539V27.0479H75.4095V28.0539H73.9329ZM73.9329 33.441V28.6353H75.4095V33.441H73.9329Z" fill="white"/>
<path d="M78.4168 29.1276H78.4384C78.7683 28.5867 79.4255 28.5056 79.7663 28.5056C80.6073 28.5056 81.2861 28.8734 81.2429 29.7334V33.4411H79.7663V30.2364C79.7663 29.7686 79.6987 29.4603 79.1416 29.444C78.5844 29.4278 78.3924 29.8172 78.4168 30.3311V33.4411H76.9402V28.6354H78.4168V29.1276Z" fill="white"/>
<path d="M88.7692 28.984C88.7692 28.4134 88.7124 27.8509 87.8389 27.8509C87.298 27.8509 86.9654 28.0132 86.9654 28.4459C86.9654 28.9326 87.3738 29.1192 87.8741 29.3599C88.5413 29.6616 89.1858 30.0114 89.8023 30.4065C90.0303 30.5453 90.2168 30.7427 90.3424 30.9782C90.468 31.2137 90.528 31.4786 90.5163 31.7452C90.5163 32.9541 89.4507 33.5842 87.8957 33.5842C85.9891 33.5842 85.3076 32.7729 85.3076 31.6424V31.1746H86.8978V31.5478C86.8626 32.1698 87.1114 32.6295 87.8957 32.6295C88.5664 32.6295 88.8828 32.3591 88.8828 31.8804C88.8828 31.5045 88.6556 31.2503 88.2473 31.0367C87.4197 30.5499 86.3867 30.201 85.7403 29.5628C85.4879 29.2981 85.3424 28.9494 85.332 28.5838C85.332 27.502 86.1433 26.8962 87.8281 26.8962C90.3594 26.8962 90.2891 28.362 90.3026 28.9921L88.7692 28.984Z" fill="white"/>
<path d="M94.5539 32.7243H94.5322C94.3051 33.2949 93.8724 33.5599 93.1584 33.5681C91.9901 33.5681 91.7278 33.1164 91.7278 32.3159V28.6353H93.2044V31.9238C93.1739 32.1472 93.2258 32.3741 93.3504 32.562C93.4774 32.6681 93.6394 32.7231 93.8048 32.7162C94.4971 32.7162 94.4863 32.1266 94.4863 31.7534V28.6353H95.9601V33.4409H94.5539V32.7243Z" fill="white"/>
<path d="M99.83 30.304V29.7631C99.8084 29.4927 99.638 29.3521 99.3216 29.3521C98.7537 29.3521 98.7537 29.8389 98.7645 30.4338V31.567C98.7294 32.5054 98.8781 32.6758 99.3216 32.719C99.7733 32.719 99.7868 32.3945 99.83 32.0105V31.567H101.307V32.0105C101.307 33.0165 100.75 33.5709 99.2865 33.5709C97.9803 33.5709 97.2311 33.0517 97.2879 31.7725V30.2121C97.2879 28.8599 98.1641 28.5083 99.2865 28.5083C100.774 28.5083 101.317 29.2087 101.307 29.9227V30.3067L99.83 30.304Z" fill="white"/>
<path d="M104.871 30.304V29.7631C104.847 29.4927 104.677 29.3521 104.36 29.3521C103.792 29.3521 103.792 29.8389 103.803 30.4338V31.567C103.771 32.5054 103.917 32.6758 104.36 32.719C104.814 32.719 104.825 32.3945 104.871 32.0105V31.567H106.348V32.0105C106.348 33.0165 105.791 33.5709 104.328 33.5709C103.024 33.5709 102.275 33.0517 102.332 31.7725V30.2121C102.318 28.8599 103.205 28.5083 104.328 28.5083C105.815 28.5083 106.359 29.2087 106.348 29.9227V30.3067L104.871 30.304Z" fill="white"/>
<path d="M107.411 30.2878C107.343 29.1547 108.116 28.5056 109.574 28.5056C111.627 28.5056 111.843 29.3169 111.843 30.6204V31.2668H108.887V31.9591C108.887 32.5892 109.217 32.7082 109.658 32.7082C110.199 32.7082 110.361 32.4107 110.339 31.805H111.816C111.873 32.8867 111.275 33.5601 109.772 33.5601C108.07 33.5601 107.378 32.9543 107.411 31.5399V30.2878ZM110.361 30.4149V29.9984C110.361 29.5116 110.18 29.3575 109.59 29.3575C108.852 29.3575 108.887 29.7848 108.887 30.2202V30.4149H110.361Z" fill="white"/>
<path d="M114.291 31.8564C114.177 32.7407 114.629 32.7164 114.969 32.7164C115.391 32.7164 115.686 32.4865 115.583 32.1755C115.562 31.905 115.14 31.7509 114.856 31.6049L114.044 31.1884C113.309 30.8044 112.83 30.3608 112.83 29.6712C112.83 28.9302 113.614 28.5029 115.032 28.5029C116.449 28.5029 117.122 29.0654 117.087 30.0958H115.61C115.645 29.5549 115.443 29.3548 114.932 29.3548C114.58 29.3548 114.307 29.4738 114.307 29.7469C114.307 30.0201 114.577 30.158 114.861 30.2878L116.065 30.9017C116.441 31.064 117.03 31.5237 117.076 31.8483C117.201 32.6839 116.927 33.552 114.886 33.552C114.101 33.552 112.638 33.3059 112.809 31.8401L114.291 31.8564Z" fill="white"/>
<path d="M119.329 31.8564C119.215 32.7407 119.667 32.7164 120.008 32.7164C120.43 32.7164 120.724 32.4865 120.622 32.1755C120.6 31.905 120.178 31.7509 119.894 31.6049L119.083 31.1884C118.345 30.8044 117.866 30.3608 117.866 29.6712C117.866 28.9302 118.65 28.5029 120.07 28.5029C121.49 28.5029 122.158 29.0654 122.123 30.0958H120.649C120.681 29.5549 120.478 29.3548 119.967 29.3548C119.616 29.3548 119.342 29.4738 119.342 29.7469C119.342 30.0201 119.613 30.158 119.9 30.2878L121.1 30.9017C121.476 31.064 122.066 31.5237 122.112 31.8483C122.236 32.6839 121.963 33.552 119.921 33.552C119.14 33.552 117.674 33.3059 117.844 31.8401L119.329 31.8564Z" fill="white"/>
<path d="M147.846 19.5865H141.851V10.1482H137.151V6.88674C140.323 6.84347 142.63 5.96996 143.292 3.16821H147.846V19.5865Z" fill="white"/>
<path d="M117.812 12.8497L116.083 12.1357C116.147 11.6474 116.147 11.1528 116.083 10.6645L117.814 9.95055C117.825 9.94722 117.834 9.9418 117.843 9.93462C117.851 9.92744 117.858 9.91866 117.863 9.90881C117.867 9.89895 117.87 9.88822 117.871 9.87727C117.871 9.86631 117.869 9.85537 117.866 9.84508L117.125 7.86818C117.115 7.84685 117.099 7.82935 117.078 7.81854C117.058 7.80773 117.034 7.80425 117.011 7.80868L115.118 8.11428C114.834 7.68033 114.5 7.28099 114.123 6.92435L115.04 5.46398C115.045 5.45464 115.049 5.44422 115.051 5.43336C115.052 5.42251 115.052 5.41144 115.049 5.40082C115.046 5.3902 115.041 5.38025 115.035 5.37159C115.028 5.36292 115.019 5.35571 115.01 5.35039L113.068 4.12801C113.048 4.11487 113.025 4.10786 113.002 4.10786C112.978 4.10786 112.955 4.11487 112.936 4.12801L111.619 5.33417C111.117 5.14791 110.599 5.0076 110.072 4.91499H110.007L109.758 3.26531C109.753 3.24291 109.74 3.22303 109.722 3.20918C109.703 3.19532 109.681 3.18838 109.658 3.18959H107.256C107.234 3.18849 107.212 3.19552 107.194 3.20941C107.176 3.22331 107.163 3.24314 107.159 3.26531L106.91 4.91228C106.355 5.01013 105.812 5.16324 105.288 5.36932L103.968 4.16046C103.948 4.14732 103.925 4.14031 103.902 4.14031C103.878 4.14031 103.855 4.14732 103.835 4.16046L101.894 5.38284C101.884 5.38816 101.876 5.39537 101.869 5.40404C101.862 5.41271 101.857 5.42265 101.854 5.43327C101.852 5.44389 101.851 5.45496 101.853 5.46582C101.854 5.47667 101.858 5.48709 101.864 5.49643L102.781 6.9568C102.403 7.31379 102.068 7.71307 101.783 8.14673L99.8896 7.84113C99.8667 7.83671 99.843 7.84018 99.8224 7.85099C99.8018 7.8618 99.7854 7.87931 99.776 7.90063L99.0458 9.84508C99.042 9.85537 99.0403 9.86631 99.0409 9.87727C99.0414 9.88822 99.0442 9.89895 99.049 9.90881C99.0538 9.91866 99.0605 9.92744 99.0688 9.93462C99.0771 9.9418 99.0868 9.94722 99.0972 9.95055L100.831 10.6645C100.767 11.1528 100.767 11.6474 100.831 12.1357L99.0999 12.8497C99.0895 12.853 99.0798 12.8584 99.0715 12.8656C99.0632 12.8728 99.0565 12.8815 99.0517 12.8914C99.0469 12.9013 99.0441 12.912 99.0436 12.9229C99.043 12.9339 99.0447 12.9448 99.0485 12.9551L99.7895 14.9347C99.7994 14.9556 99.8159 14.9725 99.8365 14.9828C99.8571 14.9931 99.8806 14.9962 99.9031 14.9915L101.796 14.6886C102.083 15.1209 102.417 15.52 102.791 15.8786L101.875 17.3389C101.869 17.3481 101.865 17.3583 101.864 17.3689C101.862 17.3796 101.863 17.3905 101.865 17.4009C101.868 17.4113 101.873 17.421 101.88 17.4294C101.886 17.4378 101.895 17.4448 101.904 17.4498L103.846 18.6722C103.865 18.6861 103.889 18.6935 103.912 18.6935C103.936 18.6935 103.959 18.6861 103.979 18.6722L105.298 17.466C105.798 17.6576 106.315 17.8015 106.843 17.896H106.907L107.159 19.5457C107.163 19.5679 107.176 19.5877 107.194 19.6016C107.212 19.6155 107.234 19.6225 107.256 19.6214H109.658C109.681 19.6226 109.703 19.6157 109.722 19.6019C109.74 19.588 109.753 19.5681 109.758 19.5457L110.004 17.8987C110.558 17.8004 111.102 17.6483 111.627 17.4444L112.946 18.6506C112.966 18.6644 112.989 18.6719 113.013 18.6719C113.036 18.6719 113.06 18.6644 113.079 18.6506L115.002 17.4498C115.011 17.4448 115.02 17.4378 115.026 17.4294C115.033 17.421 115.038 17.4113 115.041 17.4009C115.044 17.3905 115.044 17.3796 115.043 17.3689C115.041 17.3583 115.037 17.3481 115.031 17.3389L114.115 15.8786C114.491 15.5204 114.825 15.1213 115.113 14.6886L117.006 14.9915C117.028 14.9962 117.052 14.9931 117.072 14.9828C117.093 14.9725 117.109 14.9556 117.119 14.9347L117.86 12.9551C117.864 12.945 117.866 12.9342 117.866 12.9234C117.865 12.9126 117.863 12.902 117.858 12.8921C117.854 12.8823 117.847 12.8735 117.839 12.8662C117.831 12.8589 117.822 12.8533 117.812 12.8497ZM108.457 16.0949C105.536 16.1084 103.162 14.0017 103.162 11.4055C103.162 8.8093 105.536 6.69177 108.457 6.69177C111.378 6.69177 113.752 8.80119 113.752 11.4001C113.752 13.999 111.381 16.1084 108.457 16.1084V16.0949Z" fill="white"/>
<path d="M139.774 27.1613V26.9369C139.774 26.9163 139.778 26.8959 139.786 26.8769C139.794 26.8578 139.805 26.8405 139.82 26.826C139.835 26.8114 139.852 26.7999 139.871 26.792C139.89 26.7841 139.91 26.78 139.931 26.78H143.447C143.866 26.78 144.209 27.2127 144.371 29.0896C144.371 29.195 144.39 29.3032 144.401 29.4141C144.455 30.0496 144.512 30.7663 144.531 31.4289C144.531 31.4493 144.528 31.4697 144.52 31.4887C144.513 31.5077 144.501 31.525 144.487 31.5396C144.473 31.5542 144.455 31.5658 144.437 31.5737C144.418 31.5817 144.397 31.5857 144.377 31.5857H142.116C142.017 31.5805 141.922 31.5435 141.846 31.4803L140.423 30.2471C140.269 30.1126 140.097 29.9997 139.912 29.9117C139.871 29.8903 139.837 29.859 139.812 29.8207C139.787 29.7824 139.772 29.7383 139.769 29.6927V29.671C139.771 29.6254 139.785 29.5812 139.811 29.5435C139.837 29.5057 139.873 29.4759 139.915 29.4574L141.367 28.8922C141.589 28.8054 141.773 28.644 141.888 28.4358C142.004 28.2276 142.043 27.9856 141.999 27.7517C141.955 27.5177 141.831 27.3064 141.648 27.1542C141.465 27.002 141.234 26.9184 140.996 26.918C140.869 26.917 140.744 26.9408 140.626 26.9883L139.904 27.2587C139.889 27.2634 139.873 27.2645 139.857 27.2618C139.841 27.2591 139.827 27.2527 139.814 27.2432C139.801 27.2337 139.791 27.2213 139.784 27.2071C139.777 27.1929 139.774 27.1772 139.774 27.1613ZM130.974 32.2997C131.628 33.111 131.804 34.0359 130.758 34.4145C129.711 34.7931 128.71 35.2258 128.134 35.2258H126.966C126.336 35.2258 125.979 35.2258 126.401 34.8932C126.823 34.5606 127.08 34.4713 127.274 33.6735C127.469 32.8757 127.902 31.1016 127.975 30.8015C128.048 30.5013 128.094 30.3796 128.435 30.485C128.775 30.5905 130.306 31.4694 130.974 32.3078V32.2997ZM130.733 33.1597C130.658 33.1597 130.585 33.1819 130.523 33.2235C130.461 33.2651 130.412 33.3242 130.383 33.3934C130.355 33.4626 130.347 33.5387 130.362 33.6122C130.377 33.6856 130.413 33.7531 130.466 33.806C130.518 33.859 130.586 33.895 130.659 33.9096C130.733 33.9242 130.809 33.9167 130.878 33.8881C130.947 33.8594 131.006 33.8109 131.048 33.7486C131.09 33.6864 131.112 33.6132 131.112 33.5383C131.11 33.4393 131.069 33.3451 130.998 33.2758C130.927 33.2065 130.832 33.1678 130.733 33.1678V33.1597ZM133.135 29.6737H133.567C133.672 29.6704 133.775 29.6503 133.873 29.6142L135.872 28.8327C135.953 28.8002 135.95 28.7759 135.872 28.7759H134.406C134.306 28.7786 134.208 28.7595 134.116 28.7198C134.025 28.6802 133.944 28.621 133.878 28.5464C133.812 28.4719 133.764 28.3838 133.736 28.2884C133.708 28.193 133.701 28.0926 133.716 27.9943L134.016 25.5955C134.048 25.3825 134.153 25.1874 134.315 25.0448C134.476 24.9022 134.683 24.8214 134.898 24.8166H137.062C137.165 24.8163 137.267 24.8363 137.362 24.8756C137.458 24.9148 137.545 24.9725 137.618 25.0454C137.691 25.1183 137.749 25.2048 137.789 25.3002C137.828 25.3955 137.848 25.4977 137.848 25.6009V28.0349C137.848 28.0565 137.911 28.0511 137.992 28.0186L139.344 27.494C139.386 27.4755 139.422 27.4456 139.447 27.4079C139.473 27.3702 139.488 27.326 139.49 27.2803V24.3623C139.49 24.3085 139.479 24.2552 139.458 24.2057C139.436 24.1563 139.405 24.1118 139.366 24.075C139.326 24.0382 139.28 24.0099 139.229 23.9919C139.179 23.9738 139.125 23.9665 139.071 23.9702H135.26C134.829 23.9797 134.415 24.1416 134.092 24.4272C133.769 24.7129 133.557 25.1038 133.494 25.5306L132.997 29.525C132.994 29.5447 132.995 29.5649 133 29.5841C133.006 29.6033 133.016 29.621 133.029 29.636C133.042 29.651 133.058 29.6629 133.077 29.6708C133.095 29.6787 133.115 29.6825 133.135 29.6818V29.6737ZM133.511 33.1894C133.387 33.1889 133.266 33.2251 133.163 33.2934C133.06 33.3617 132.979 33.4591 132.932 33.5732C132.884 33.6873 132.871 33.813 132.895 33.9344C132.919 34.0557 132.978 34.1673 133.065 34.2549C133.153 34.3426 133.264 34.4023 133.385 34.4266C133.506 34.451 133.632 34.4388 133.746 34.3916C133.861 34.3444 133.958 34.2643 134.027 34.1615C134.096 34.0587 134.133 33.9378 134.133 33.8141C134.128 33.6522 134.06 33.4985 133.944 33.3855C133.828 33.2725 133.673 33.209 133.511 33.2084V33.1894ZM131.815 32.8919C131.774 32.9704 131.723 32.965 131.691 32.8919C131.574 32.6066 131.416 32.3404 131.22 32.1023C131.152 32.0157 131.077 31.9319 130.996 31.8453C130.965 31.815 130.947 31.7748 130.944 31.7321C130.941 31.6894 130.954 31.647 130.979 31.6128C131.404 31.0989 132.015 30.6825 133.116 30.2471C134.66 29.6386 140.688 27.2885 140.756 27.2722C140.929 27.2116 141.119 27.2206 141.286 27.2974C141.453 27.3742 141.583 27.5128 141.65 27.684C141.717 27.8551 141.714 28.0454 141.643 28.2148C141.572 28.3842 141.438 28.5194 141.27 28.592C141.207 28.6136 135.177 30.9637 133.638 31.5668C132.418 32.0563 132.077 32.4214 131.815 32.9109V32.8919ZM140.675 27.9159C140.675 27.9827 140.694 28.0481 140.732 28.1037C140.769 28.1593 140.822 28.2026 140.883 28.2282C140.945 28.2538 141.013 28.2605 141.079 28.2474C141.144 28.2344 141.204 28.2022 141.252 28.1549C141.299 28.1076 141.331 28.0474 141.344 27.9818C141.357 27.9162 141.351 27.8483 141.325 27.7865C141.299 27.7247 141.256 27.6719 141.2 27.6348C141.145 27.5977 141.079 27.5778 141.013 27.5778C140.967 27.5778 140.921 27.5871 140.879 27.6052C140.836 27.6234 140.798 27.65 140.767 27.6834C140.735 27.7169 140.711 27.7564 140.695 27.7996C140.679 27.8428 140.672 27.8888 140.675 27.9348V27.9159ZM143.214 33.8141C143.213 34.2342 143.046 34.6369 142.749 34.934C142.452 35.231 142.049 35.3982 141.629 35.3989H133.516C133.149 35.3997 132.793 35.2728 132.508 35.0401C132.224 34.8073 132.03 34.4831 131.958 34.1228C131.887 33.7626 131.943 33.3886 132.116 33.065C132.29 32.7413 132.571 32.488 132.91 32.3484L138.26 30.1605C138.586 30.025 138.943 29.9834 139.291 30.0402C139.64 30.0971 139.965 30.2502 140.231 30.4823L142.687 32.6458C142.853 32.7952 142.987 32.9783 143.078 33.1829C143.168 33.3876 143.215 33.6092 143.214 33.8331V33.8141ZM142.584 33.8141C142.585 33.6784 142.556 33.5441 142.5 33.4204C142.444 33.2967 142.362 33.1866 142.259 33.0975L139.804 30.934C139.575 30.7325 139.281 30.6218 138.976 30.623C138.808 30.6231 138.642 30.6562 138.487 30.7203L133.146 32.9271C132.94 33.0107 132.77 33.1632 132.665 33.3585C132.559 33.5538 132.526 33.7797 132.569 33.9974C132.612 34.215 132.73 34.4108 132.902 34.551C133.073 34.6913 133.289 34.7674 133.511 34.7661H141.624C141.875 34.7683 142.116 34.6716 142.297 34.497C142.477 34.3224 142.581 34.0839 142.587 33.8331L142.584 33.8141ZM144.369 31.8805H142.476C142.386 31.8805 142.37 31.9265 142.435 31.986L142.892 32.3889C143.253 32.7054 143.48 33.1472 143.528 33.6248C143.532 33.6667 143.552 33.7056 143.582 33.7344C143.613 33.7632 143.653 33.78 143.695 33.7817H143.909C144.363 33.7817 144.518 33.0272 144.536 32.0374C144.532 31.9972 144.512 31.9604 144.48 31.9347C144.449 31.909 144.409 31.8964 144.369 31.8994V31.8805ZM141.629 33.1894C141.506 33.1894 141.385 33.2261 141.282 33.2947C141.179 33.3634 141.099 33.4609 141.052 33.5751C141.005 33.6892 140.992 33.8148 141.017 33.936C141.041 34.0572 141.1 34.1685 141.188 34.2559C141.275 34.3432 141.386 34.4027 141.507 34.4268C141.629 34.451 141.754 34.4386 141.868 34.3913C141.982 34.344 142.08 34.2639 142.149 34.1612C142.217 34.0585 142.254 33.9377 142.254 33.8141C142.248 33.652 142.18 33.4983 142.064 33.3853C141.947 33.2724 141.791 33.209 141.629 33.2084V33.1894ZM138.976 31.0584C138.816 31.0584 138.659 31.106 138.525 31.1951C138.392 31.2842 138.288 31.411 138.227 31.5592C138.165 31.7075 138.149 31.8706 138.181 32.028C138.212 32.1853 138.289 32.3299 138.403 32.4434C138.516 32.5568 138.661 32.6341 138.818 32.6654C138.975 32.6967 139.138 32.6806 139.287 32.6192C139.435 32.5578 139.562 32.4538 139.651 32.3204C139.74 32.187 139.788 32.0301 139.788 31.8697C139.783 31.6578 139.695 31.4563 139.543 31.3082C139.392 31.1601 139.188 31.0772 138.976 31.0773V31.0584Z" fill="white"/>
</g>
<defs>
<radialGradient id="paint0_radial_1112_6562" cx="0" cy="0" r="1" gradientUnits="userSpaceOnUse" gradientTransform="translate(76.3171 15.9545) scale(58.0936 35.696)">
<stop offset="0.57" stop-color="#130C0E"/>
<stop offset="0.8" stop-color="#130C0E"/>
<stop offset="1" stop-color="#130C0E"/>
</radialGradient>
<clipPath id="clip0_1112_6562">
<rect width="151.184" height="34.6085" fill="white" transform="translate(0.32959 0.971924)"/>
</clipPath>
</defs>
</svg>
